<svg id="svg" version="1.1" width="512" height="512" xmlns="http://www.w3.org/2000/svg"><path d="M52.000 35.929 C 48.015 36.749,44.596 38.454,30.465 46.667 C 17.567 54.164,15.621 55.755,12.817 61.092 C 9.368 67.654,9.490 79.730,13.068 86.000 C 14.481 88.475,24.584 106.025,35.521 125.000 C 67.599 180.657,66.414 178.383,63.754 179.150 C 62.514 179.508,51.915 179.845,40.200 179.900 C 22.704 179.982,18.329 180.289,15.700 181.618 C 9.754 184.624,6.170 187.959,3.079 193.363 L -0.000 198.743 -0.000 217.920 L 0.000 237.096 3.412 242.430 C 8.154 249.843,13.482 253.526,22.221 255.431 C 23.718 255.757,25.404 256.887,25.969 257.942 C 26.534 258.997,31.974 277.779,38.060 299.680 C 44.145 321.581,56.309 365.375,65.091 397.000 C 84.406 466.554,84.285 466.166,88.290 471.802 C 92.334 477.495,101.567 483.561,108.317 484.961 C 111.910 485.706,158.144 485.953,259.000 485.768 L 404.500 485.500 410.238 482.683 C 417.382 479.176,423.805 472.853,426.760 466.420 C 428.777 462.029,434.824 440.767,463.001 339.000 C 474.892 296.055,481.792 271.415,484.066 263.779 C 486.162 256.742,487.002 255.879,493.000 254.609 C 497.931 253.564,504.955 248.109,508.497 242.572 L 512.000 237.096 512.000 218.015 C 512.000 199.778,511.892 198.721,509.564 194.127 C 507.004 189.074,501.586 183.659,497.139 181.709 C 495.446 180.966,484.223 180.363,465.831 180.026 C 450.064 179.737,436.866 179.202,436.503 178.838 C 435.663 177.996,436.145 177.127,469.988 118.500 C 493.676 77.463,493.874 76.957,490.580 65.628 C 488.306 57.805,484.259 54.079,467.801 44.654 C 453.054 36.209,448.010 34.490,441.023 35.527 C 431.792 36.896,426.049 41.638,419.258 53.500 C 415.317 60.383,393.705 97.854,383.498 115.500 C 380.635 120.450,374.548 131.025,369.971 139.000 C 365.395 146.975,359.068 158.000,355.911 163.500 C 352.755 169.000,348.964 174.963,347.488 176.750 L 344.803 180.000 251.012 180.000 C 163.119 180.000,157.095 179.890,155.214 178.250 C 154.110 177.287,147.141 165.925,139.727 153.000 C 95.245 75.455,77.533 45.171,75.169 42.620 C 70.268 37.331,59.832 34.317,52.000 35.929 M61.305 67.346 C 62.608 69.631,71.222 84.550,80.449 100.500 C 95.309 126.190,115.667 161.521,122.702 173.829 C 124.063 176.209,124.875 178.459,124.506 178.829 C 124.137 179.198,118.125 179.655,111.145 179.845 C 99.953 180.148,98.200 179.971,96.291 178.345 C 95.100 177.330,88.564 166.825,81.765 155.000 C 74.967 143.175,62.068 120.777,53.103 105.228 C 44.137 89.678,36.575 76.089,36.298 75.031 C 35.772 73.018,40.524 69.453,51.434 63.675 C 57.053 60.699,57.639 60.917,61.305 67.346 M449.290 63.122 C 456.832 66.923,464.850 72.166,465.430 73.678 C 465.756 74.528,460.404 84.781,452.823 97.828 C 445.577 110.298,437.650 124.100,435.207 128.500 C 432.764 132.900,428.391 140.550,425.489 145.500 C 422.586 150.450,417.198 159.675,413.516 166.000 C 409.833 172.325,406.100 178.063,405.219 178.750 C 403.532 180.067,383.909 180.351,378.911 179.132 L 376.323 178.500 382.308 168.000 C 385.600 162.225,391.305 152.325,394.986 146.000 C 398.666 139.675,408.788 122.125,417.477 107.000 C 438.980 69.572,444.034 61.000,444.598 61.000 C 444.863 61.000,446.974 61.955,449.290 63.122 M485.965 205.934 C 486.534 206.998,487.000 212.203,487.000 217.500 C 487.000 222.797,486.534 228.002,485.965 229.066 C 484.946 230.969,481.312 231.000,255.940 231.000 L 26.950 231.000 25.975 228.435 C 24.553 224.695,24.728 206.672,26.200 205.200 C 27.126 204.274,79.570 204.000,256.165 204.000 C 481.314 204.000,484.946 204.031,485.965 205.934 M457.750 255.630 C 458.988 255.962,460.000 256.923,460.000 257.766 C 460.000 258.608,453.877 280.943,446.392 307.399 C 425.802 380.182,411.100 432.357,408.013 443.602 C 404.932 454.826,403.182 458.140,399.439 459.846 C 397.563 460.701,360.328 461.000,255.903 461.000 C 100.639 461.000,110.844 461.427,107.717 454.794 C 104.163 447.255,62.181 304.432,54.076 272.308 C 50.363 257.594,50.298 256.274,53.250 255.706 C 56.770 255.028,455.224 254.953,457.750 255.630 M194.500 284.353 C 188.583 287.114,182.734 293.247,180.996 298.511 C 179.069 304.351,180.191 314.943,183.298 320.245 C 187.642 327.657,195.433 332.000,204.387 332.000 C 214.808 332.000,222.609 327.424,227.307 318.553 C 230.357 312.795,230.334 301.163,227.261 295.357 C 221.079 283.675,206.469 278.768,194.500 284.353 M298.534 283.254 C 292.365 284.882,284.638 293.173,283.026 299.893 C 278.833 317.370,290.201 332.047,307.876 331.978 C 317.496 331.940,326.126 326.334,330.129 317.522 C 332.575 312.137,332.572 301.842,330.121 296.500 C 324.917 285.155,311.942 279.714,298.534 283.254 M240.500 373.441 C 228.836 376.404,219.615 381.188,207.428 390.598 C 195.237 400.011,193.000 402.926,193.000 409.400 C 193.000 415.769,195.289 419.280,200.581 421.027 C 206.519 422.987,210.080 421.584,218.644 413.910 C 231.502 402.390,249.867 394.643,259.913 396.502 C 271.592 398.664,283.231 404.920,294.830 415.269 C 303.407 422.923,308.928 423.822,315.445 418.626 C 317.938 416.638,318.409 415.472,318.765 410.405 C 319.135 405.134,318.881 404.121,316.404 400.966 C 313.379 397.113,303.162 388.769,295.401 383.814 C 288.610 379.478,279.512 375.447,272.298 373.577 C 264.971 371.679,247.726 371.604,240.500 373.441 " stroke="none" fill="undefined" fill-rule="evenodd"/></svg>